<svg id="visual" viewBox="0 0 960 540" width="960" height="540" xmlns="http://www.w3.org/2000/svg" xmlns:xlink="http://www.w3.org/1999/xlink" version="1.1"><rect x="0" y="0" width="960" height="540" fill="#141528"></rect><path d="M119 0L131 0L131 45L123 45L123 90L106 90L106 135L136 135L136 180L111 180L111 225L133 225L133 270L138 270L138 315L137 315L137 360L123 360L123 405L112 405L112 450L128 450L128 495L115 495L115 540L0 540L0 495L0 495L0 450L0 450L0 405L0 405L0 360L0 360L0 315L0 315L0 270L0 270L0 225L0 225L0 180L0 180L0 135L0 135L0 90L0 90L0 45L0 45L0 0L0 0Z" fill="#475a94"></path><path d="M112 0L102 0L102 45L115 45L115 90L84 90L84 135L108 135L108 180L102 180L102 225L89 225L89 270L103 270L103 315L111 315L111 360L94 360L94 405L110 405L110 450L116 450L116 495L101 495L101 540L0 540L0 495L0 495L0 450L0 450L0 405L0 405L0 360L0 360L0 315L0 315L0 270L0 270L0 225L0 225L0 180L0 180L0 135L0 135L0 90L0 90L0 45L0 45L0 0L0 0Z" fill="#435485"></path><path d="M80 0L81 0L81 45L90 45L90 90L69 90L69 135L69 135L69 180L66 180L66 225L64 225L64 270L80 270L80 315L82 315L82 360L81 360L81 405L84 405L84 450L65 450L65 495L82 495L82 540L0 540L0 495L0 495L0 450L0 450L0 405L0 405L0 360L0 360L0 315L0 315L0 270L0 270L0 225L0 225L0 180L0 180L0 135L0 135L0 90L0 90L0 45L0 45L0 0L0 0Z" fill="#3f4e76"></path><path d="M52 0L60 0L60 45L60 45L60 90L58 90L58 135L65 135L65 180L63 180L63 225L59 225L59 270L56 270L56 315L44 315L44 360L49 360L49 405L47 405L47 450L59 450L59 495L51 495L51 540L0 540L0 495L0 495L0 450L0 450L0 405L0 405L0 360L0 360L0 315L0 315L0 270L0 270L0 225L0 225L0 180L0 180L0 135L0 135L0 90L0 90L0 45L0 45L0 0L0 0Z" fill="#3c4867"></path><path d="M39 0L40 0L40 45L34 45L34 90L33 90L33 135L29 135L29 180L32 180L32 225L34 225L34 270L42 270L42 315L40 315L40 360L23 360L23 405L31 405L31 450L31 450L31 495L36 495L36 540L0 540L0 495L0 495L0 450L0 450L0 405L0 405L0 360L0 360L0 315L0 315L0 270L0 270L0 225L0 225L0 180L0 180L0 135L0 135L0 90L0 90L0 45L0 45L0 0L0 0Z" fill="#394259"></path></svg>